<svg xmlns="http://www.w3.org/2000/svg" viewBox="0 0 230 176">
        <g
          transform="matrix(1.5675618787014802,0,0,1.5675618787014802,-5.144737440082665,37.72975248519408)"
          fill="#CC000E"
        >
          <g>
            <path
              d="M31.989,9c0.553,0,1-0.447,1-1V5c0-0.553-0.447-1-1-1s-1,0.447-1,1v3C30.989,8.553,31.437,9,31.989,9z"
            ></path>
            <path
              d="M17.989,20h3c0.553,0,1-0.447,1-1s-0.447-1-1-1h-3c-0.553,0-1,0.447-1,1S17.437,20,17.989,20z"
            ></path>
            <path
              d="M22.282,10.828c0.195,0.195,0.451,0.293,0.707,0.293s0.512-0.098,0.707-0.293c0.391-0.391,0.391-1.023,0-1.414   l-2.121-2.121c-0.391-0.391-1.023-0.391-1.414,0s-0.391,1.023,0,1.414L22.282,10.828z"
            ></path>
            <path
              d="M42.989,19c0,0.553,0.447,1,1,1h3c0.553,0,1-0.447,1-1s-0.447-1-1-1h-3C43.437,18,42.989,18.447,42.989,19z"
            ></path>
            <path
              d="M41.989,11.121c0.256,0,0.512-0.098,0.707-0.293l2.121-2.121c0.391-0.391,0.391-1.023,0-1.414s-1.023-0.391-1.414,0   l-2.121,2.121c-0.391,0.391-0.391,1.023,0,1.414C41.478,11.023,41.733,11.121,41.989,11.121z"
            ></path>
            <path
              d="M60.696,59.293c-0.199-0.199-4.729-4.636-14.51-6.863c0.458-0.771,0.84-1.583,1.129-2.43h0.674c2.206,0,4-1.794,4-4   s-1.794-4-4-4v2c1.103,0,2,0.897,2,2s-0.897,2-2,2h-0.183c0.108-0.655,0.183-1.319,0.183-2h-2c0,6.617-6.28,12-14,12   s-14-5.384-14-12.001h-2c0,0.681,0.075,1.346,0.183,2.001h-0.183c-1.103,0-2-0.897-2-2s0.897-2,2-2v-2c-2.206,0-4,1.794-4,4   s1.794,4,4,4h0.674c0.29,0.847,0.671,1.658,1.129,2.43c-9.78,2.228-14.311,6.664-14.51,6.863l1.414,1.414   c0.046-0.046,4.572-4.456,14.362-6.497C21.97,57.711,26.674,60,31.989,60s10.021-2.289,12.932-5.789   c9.738,2.033,14.316,6.452,14.363,6.498L60.696,59.293z"
            ></path>
            <path
              d="M31.988,49c1.654,0,3.001-1.346,3.001-3v-4h-2v4c0,0.552-0.449,1-1.001,1c-0.551,0-0.999-0.448-0.999-1v-4h-2v4   C28.989,47.654,30.335,49,31.988,49z"
            ></path>
            <circle cx="23.489" cy="42.501" r="1.5"></circle>
            <path
              d="M31.989,37c1.104,0,2-0.896,2-2h-4C29.989,36.104,30.886,37,31.989,37z"
            ></path>
            <circle cx="40.489" cy="42.501" r="1.5"></circle>
            <path
              d="M26.988,26.239V28c0,1.654,1.346,3,3,3h4c1.654,0,3-1.346,3-3v-1.759c1.889-1.515,3.001-3.811,3.001-6.241   c0-4.411-3.589-8-8-8s-8,3.589-8,8C23.989,22.43,25.102,24.725,26.988,26.239z M31.989,14c3.309,0,6,2.691,6,6   c0,1.956-0.962,3.796-2.573,4.921l-0.428,0.299V28c0,0.552-0.448,1-1,1h-4c-0.552,0-1-0.448-1-1v-2.782l-0.428-0.298   c-1.61-1.126-2.571-2.965-2.571-4.92C25.989,16.691,28.681,14,31.989,14z"
            ></path>
            <path
              d="M35.989,33c0-0.553-0.447-1-1-1h-6c-0.553,0-1,0.447-1,1s0.447,1,1,1h6C35.542,34,35.989,33.553,35.989,33z"
            ></path>
            <path
              d="M40.989,50l-2-0.013c-0.008,0.309-0.219,3.014-5,3.014v2C40.909,55.001,40.989,50.05,40.989,50z"
            ></path>
            <path
              d="M44.545,36.057c-3.516-2.345-6.966-0.096-7.11,0l1.109,1.664c0.025-0.016,2.472-1.612,4.892,0L44.545,36.057z"
            ></path>
            <path
              d="M26.544,38.168c-3.516-2.345-6.966-0.097-7.11,0l1.109,1.664c0.024-0.017,2.472-1.611,4.892,0L26.544,38.168z"
            ></path>
          </g>
        </g>

      </svg>